<svg width="230" height="28" viewBox="0 0 230 28" fill="none" xmlns="http://www.w3.org/2000/svg">
<path d="M1.51172 22.7461C1.93359 23.0508 2.4668 23.4316 3.11133 23.8887C3.76758 24.3457 4.48828 24.75 5.27344 25.1016C6.07031 25.4531 6.87891 25.6289 7.69922 25.6289C8.47266 25.6289 9.16406 25.4062 9.77344 24.9609C10.3828 24.5039 10.6875 23.8652 10.6875 23.0449C10.6875 22.4004 10.4297 21.8613 9.91406 21.4277C9.39844 20.9824 8.79492 20.6074 8.10352 20.3027C7.41211 19.9863 6.79688 19.7109 6.25781 19.4766C5.34375 19.0664 4.44141 18.627 3.55078 18.1582C2.67188 17.6895 1.93945 17.0918 1.35352 16.3652C0.779297 15.627 0.492188 14.6602 0.492188 13.4648C0.492188 12.2578 0.873047 11.291 1.63477 10.5645C2.4082 9.82617 3.36914 9.29297 4.51758 8.96484C5.66602 8.625 6.82031 8.45508 7.98047 8.45508C8.70703 8.45508 9.46875 8.50195 10.2656 8.5957C11.0625 8.67773 11.7363 8.81836 12.2871 9.01758C12.8496 9.2168 13.1309 9.48633 13.1309 9.82617C13.1309 9.9082 13.0957 10.0312 13.0254 10.1953L11.8301 12.498C11.5371 12.2988 11.1035 12.0469 10.5293 11.7422C9.9668 11.4258 9.32812 11.1445 8.61328 10.8984C7.91016 10.6406 7.18359 10.5117 6.43359 10.5117C5.625 10.5117 4.96289 10.6992 4.44727 11.0742C3.93164 11.4492 3.67383 11.9824 3.67383 12.6738C3.67383 13.3887 3.93164 13.9863 4.44727 14.4668C4.96289 14.9473 5.625 15.3691 6.43359 15.7324C7.24219 16.084 8.09766 16.4297 9 16.7695C9.90234 17.1094 10.7578 17.502 11.5664 17.9473C12.375 18.3809 13.0371 18.9199 13.5527 19.5645C14.0684 20.209 14.3262 21.0176 14.3262 21.9902C14.3262 23.0215 14.1035 23.8945 13.6582 24.6094C13.2246 25.3125 12.6445 25.8809 11.918 26.3145C11.2031 26.748 10.4121 27.0586 9.54492 27.2461C8.67773 27.4453 7.82227 27.5449 6.97852 27.5449C6.25195 27.5449 5.48438 27.4629 4.67578 27.2988C3.86719 27.1465 3.10547 26.9473 2.39062 26.7012C1.6875 26.4551 1.11328 26.1973 0.667969 25.9277C0.222656 25.6465 0 25.3828 0 25.1367C0 24.9844 0.0351562 24.8379 0.105469 24.6973L1.51172 22.7461ZM32.4316 12.7441C31.6582 12.2988 30.7441 11.8242 29.6895 11.3203C28.6348 10.8047 27.5918 10.5469 26.5605 10.5469C25.5059 10.5469 24.6504 10.8809 23.9941 11.5488C23.3496 12.2168 22.875 13.0488 22.5703 14.0449C22.2773 15.0293 22.1309 16.0137 22.1309 16.998C22.1309 18.5332 22.4004 19.9277 22.9395 21.1816C23.4902 22.4355 24.334 23.4316 25.4707 24.1699C26.6074 24.9082 28.0488 25.2773 29.7949 25.2773C31.2129 25.2773 32.748 25.0254 34.4004 24.5215L34.9805 25.6992C34.0195 26.3438 32.918 26.8125 31.6758 27.1055C30.4453 27.3984 29.2441 27.5449 28.0723 27.5449C26.7949 27.5449 25.5586 27.3457 24.3633 26.9473C23.168 26.5371 22.0957 25.9395 21.1465 25.1543C20.209 24.3691 19.459 23.4082 18.8965 22.2715C18.3457 21.123 18.0703 19.8047 18.0703 18.3164C18.0703 16.2656 18.5391 14.5078 19.4766 13.043C20.4141 11.5664 21.6914 10.4355 23.3086 9.65039C24.9258 8.85352 26.7539 8.45508 28.793 8.45508C28.9688 8.45508 29.3203 8.47852 29.8477 8.52539C30.375 8.56055 30.9375 8.63672 31.5352 8.75391C32.1445 8.85938 32.666 9.01758 33.0996 9.22852C33.5449 9.43945 33.7676 9.70898 33.7676 10.0371C33.7676 10.2129 33.7383 10.3359 33.6797 10.4062L32.4316 12.7441ZM36.6504 0.720703C36.9785 0.568359 37.4707 0.439453 38.127 0.333984C38.7832 0.228516 39.4863 0.146484 40.2363 0.0878906C40.998 0.0292969 41.6836 0 42.293 0C42.7852 0 43.1602 0.0410156 43.418 0.123047C43.6758 0.193359 43.8047 0.462891 43.8047 0.931641V10.4766C43.9102 10.4531 44.1914 10.3359 44.6484 10.125C45.1172 9.91406 45.6914 9.67969 46.3711 9.42188C47.0625 9.15234 47.8125 8.91797 48.6211 8.71875C49.4297 8.51953 50.2383 8.41992 51.0469 8.41992C52.4531 8.41992 53.5137 8.66016 54.2285 9.14062C54.9551 9.62109 55.4473 10.2832 55.7051 11.127C55.9629 11.959 56.0918 12.9199 56.0918 14.0098V25.2422H59.1504V26.5605C58.752 26.7832 58.0957 26.9648 57.1816 27.1055C56.2676 27.2461 55.3887 27.3164 54.5449 27.3164C53.8301 27.3164 53.2266 27.2109 52.7344 27C52.2539 26.8008 52.0137 26.3438 52.0137 25.6289V14.3613C52.0137 13.1777 51.8555 12.3281 51.5391 11.8125C51.2344 11.2852 50.5781 11.0215 49.5703 11.0215C49.0781 11.0215 48.5215 11.0742 47.9004 11.1797C47.2793 11.2734 46.6699 11.3848 46.0723 11.5137C45.4863 11.6426 44.9824 11.7598 44.5605 11.8652C44.1387 11.9707 43.8867 12.0352 43.8047 12.0586V21.709C43.8047 23.1504 43.8691 24.2695 43.998 25.0664C44.1387 25.8633 44.2441 26.4258 44.3145 26.7539C43.9863 26.9297 43.5762 27.0645 43.084 27.1582C42.6035 27.2637 42.1758 27.3164 41.8008 27.3164C41.2031 27.3164 40.7109 27.1992 40.3242 26.9648C39.9375 26.7188 39.7441 26.2734 39.7441 25.6289V2.05664H36.6504V0.720703ZM62.2793 18C62.2793 16.1367 62.6719 14.4902 63.457 13.0605C64.2539 11.6191 65.3906 10.4941 66.8672 9.68555C68.3555 8.86523 70.1367 8.45508 72.2109 8.45508C73.7695 8.45508 75.1055 8.77734 76.2188 9.42188C77.3438 10.0664 78.2051 10.9102 78.8027 11.9531C79.4004 12.9961 79.6992 14.1211 79.6992 15.3281C79.6992 15.8789 79.6289 16.4297 79.4883 16.9805C79.3477 17.5312 79.0781 17.9883 78.6797 18.3516C78.293 18.7148 77.707 18.8965 76.9219 18.8965H66.4102C66.6445 21.0059 67.4766 22.623 68.9062 23.748C70.3359 24.8613 72.082 25.418 74.1445 25.418C75.5859 25.418 77.0859 25.166 78.6445 24.6621L79.2246 25.8398C78.2754 26.4844 77.1914 26.9531 75.9727 27.2461C74.7539 27.5391 73.5586 27.6855 72.3867 27.6855C71.0977 27.6855 69.8496 27.4805 68.6426 27.0703C67.4355 26.6719 66.3516 26.0684 65.3906 25.2598C64.4414 24.4512 63.6855 23.4434 63.123 22.2363C62.5605 21.0293 62.2793 19.6172 62.2793 18ZM75.4805 16.7344C75.5508 16.5 75.5977 16.2656 75.6211 16.0312C75.6445 15.7969 75.6562 15.5508 75.6562 15.293C75.6562 14.5195 75.4863 13.7578 75.1465 13.0078C74.8184 12.2578 74.3262 11.6367 73.6699 11.1445C73.0254 10.6523 72.2285 10.4062 71.2793 10.4062C70.084 10.4062 69.1348 10.7051 68.4316 11.3027C67.7402 11.8887 67.2363 12.6621 66.9199 13.623C66.6152 14.584 66.4336 15.6211 66.375 16.7344H75.4805ZM97.752 2.05664H94.6582V0.720703C94.9863 0.568359 95.4785 0.439453 96.1348 0.333984C96.791 0.228516 97.5 0.146484 98.2617 0.0878906C99.0234 0.0292969 99.709 0 100.318 0C100.799 0 101.168 0.0410156 101.426 0.123047C101.695 0.193359 101.83 0.462891 101.83 0.931641V25.2422H104.889V26.5605C104.49 26.7832 103.834 26.9648 102.92 27.1055C102.006 27.2461 101.127 27.3164 100.283 27.3164C99.5684 27.3164 98.9648 27.2109 98.4727 27C97.9922 26.8008 97.752 26.3438 97.752 25.6289V25.3477C97.5996 25.4531 97.2598 25.6875 96.7324 26.0508C96.2168 26.4023 95.5488 26.7363 94.7285 27.0527C93.9199 27.3809 92.9941 27.5449 91.9512 27.5449C90.3105 27.5449 88.8809 27.1172 87.6621 26.2617C86.4551 25.3945 85.5176 24.2461 84.8496 22.8164C84.1934 21.375 83.8652 19.793 83.8652 18.0703C83.8652 16.1602 84.1523 14.4844 84.7266 13.043C85.3125 11.6016 86.1914 10.4766 87.3633 9.66797C88.5469 8.85938 90.0293 8.45508 91.8105 8.45508C92.8418 8.45508 93.8672 8.60156 94.8867 8.89453C95.9062 9.17578 96.8613 9.64453 97.752 10.3008V2.05664ZM97.752 12.1641C97.0488 11.7891 96.3105 11.4375 95.5371 11.1094C94.7637 10.7812 93.8086 10.6172 92.6719 10.6172C91.0781 10.6172 89.9355 11.3262 89.2441 12.7441C88.5527 14.1504 88.207 15.9727 88.207 18.2109C88.207 20.4727 88.6172 22.2363 89.4375 23.502C90.2578 24.7559 91.4121 25.3828 92.9004 25.3828C93.7793 25.3828 94.6465 25.1953 95.502 24.8203C96.3691 24.4336 97.1191 23.9238 97.752 23.291V12.1641ZM119.426 10.6875V9.35156C119.754 9.21094 120.246 9.08789 120.902 8.98242C121.559 8.87695 122.268 8.79492 123.029 8.73633C123.791 8.67773 124.477 8.64844 125.086 8.64844C125.566 8.64844 125.936 8.68945 126.193 8.77148C126.463 8.8418 126.598 9.11133 126.598 9.58008V25.2422H129.656V26.5605C129.258 26.7832 128.602 26.9648 127.688 27.1055C126.773 27.2461 125.895 27.3164 125.051 27.3164C124.336 27.3164 123.732 27.2109 123.24 27C122.76 26.8008 122.52 26.3438 122.52 25.6289V25.4883C122.52 25.4648 122.297 25.5586 121.852 25.7695C121.418 25.9688 120.838 26.209 120.111 26.4902C119.396 26.7715 118.611 27.0176 117.756 27.2285C116.912 27.4395 116.08 27.5449 115.26 27.5449C113.854 27.5449 112.793 27.3047 112.078 26.8242C111.363 26.3438 110.877 25.6816 110.619 24.8379C110.373 23.9941 110.25 23.0332 110.25 21.9551V10.6875H107.156V9.35156C107.484 9.21094 107.977 9.08789 108.633 8.98242C109.289 8.87695 109.992 8.79492 110.742 8.73633C111.504 8.67773 112.189 8.64844 112.799 8.64844C113.291 8.64844 113.666 8.68945 113.924 8.77148C114.182 8.8418 114.311 9.11133 114.311 9.58008V21.6035C114.311 22.7871 114.469 23.6426 114.785 24.1699C115.102 24.6855 115.764 24.9434 116.771 24.9434C117.217 24.9434 117.762 24.8906 118.406 24.7852C119.062 24.6797 119.701 24.5625 120.322 24.4336C120.955 24.293 121.482 24.1699 121.904 24.0645C122.326 23.959 122.531 23.9062 122.52 23.9062V10.6875H119.426ZM138.604 25.2422H141.662V26.5605C141.264 26.7832 140.607 26.9648 139.693 27.1055C138.779 27.2461 137.9 27.3164 137.057 27.3164C136.342 27.3164 135.744 27.2109 135.264 27C134.783 26.8008 134.543 26.3438 134.543 25.6289V2.05664H131.432V0.720703C131.76 0.568359 132.252 0.439453 132.908 0.333984C133.576 0.228516 134.285 0.146484 135.035 0.0878906C135.797 0.0292969 136.482 0 137.092 0C137.572 0 137.941 0.0410156 138.199 0.123047C138.469 0.193359 138.604 0.462891 138.604 0.931641V25.2422ZM144.896 18C144.896 16.1367 145.289 14.4902 146.074 13.0605C146.871 11.6191 148.008 10.4941 149.484 9.68555C150.973 8.86523 152.754 8.45508 154.828 8.45508C156.387 8.45508 157.723 8.77734 158.836 9.42188C159.961 10.0664 160.822 10.9102 161.42 11.9531C162.018 12.9961 162.316 14.1211 162.316 15.3281C162.316 15.8789 162.246 16.4297 162.105 16.9805C161.965 17.5312 161.695 17.9883 161.297 18.3516C160.91 18.7148 160.324 18.8965 159.539 18.8965H149.027C149.262 21.0059 150.094 22.623 151.523 23.748C152.953 24.8613 154.699 25.418 156.762 25.418C158.203 25.418 159.703 25.166 161.262 24.6621L161.842 25.8398C160.893 26.4844 159.809 26.9531 158.59 27.2461C157.371 27.5391 156.176 27.6855 155.004 27.6855C153.715 27.6855 152.467 27.4805 151.26 27.0703C150.053 26.6719 148.969 26.0684 148.008 25.2598C147.059 24.4512 146.303 23.4434 145.74 22.2363C145.178 21.0293 144.896 19.6172 144.896 18ZM158.098 16.7344C158.168 16.5 158.215 16.2656 158.238 16.0312C158.262 15.7969 158.273 15.5508 158.273 15.293C158.273 14.5195 158.104 13.7578 157.764 13.0078C157.436 12.2578 156.943 11.6367 156.287 11.1445C155.643 10.6523 154.846 10.4062 153.896 10.4062C152.701 10.4062 151.752 10.7051 151.049 11.3027C150.357 11.8887 149.854 12.6621 149.537 13.623C149.232 14.584 149.051 15.6211 148.992 16.7344H158.098ZM169.541 22.7812C170.314 22.7812 170.941 23.0215 171.422 23.502C171.914 23.9707 172.16 24.5391 172.16 25.207C172.16 25.8984 171.914 26.4844 171.422 26.9648C170.941 27.4453 170.314 27.6855 169.541 27.6855C168.791 27.6855 168.176 27.4453 167.695 26.9648C167.215 26.4844 166.975 25.8984 166.975 25.207C166.975 24.5391 167.215 23.9707 167.695 23.502C168.176 23.0215 168.791 22.7812 169.541 22.7812ZM194.414 21.709C194.414 23.1504 194.479 24.2695 194.607 25.0664C194.748 25.8633 194.854 26.4258 194.924 26.7539C194.596 26.9297 194.186 27.0645 193.693 27.1582C193.213 27.2637 192.785 27.3164 192.41 27.3164C191.812 27.3164 191.32 27.1992 190.934 26.9648C190.547 26.7188 190.354 26.2734 190.354 25.6289V14.1504C190.354 13.1895 190.248 12.4395 190.037 11.9004C189.838 11.3613 189.258 11.0918 188.297 11.0918C187.828 11.0918 187.277 11.1445 186.645 11.25C186.023 11.3438 185.414 11.4609 184.816 11.6016C184.23 11.7305 183.744 11.8477 183.357 11.9531C182.971 12.0469 182.783 12.0938 182.795 12.0938V21.709C182.795 23.1504 182.859 24.2695 182.988 25.0664C183.117 25.8633 183.217 26.4258 183.287 26.7539C182.971 26.9297 182.566 27.0645 182.074 27.1582C181.582 27.2637 181.148 27.3164 180.773 27.3164C180.176 27.3164 179.684 27.1992 179.297 26.9648C178.91 26.7188 178.717 26.2734 178.717 25.6289V10.7578H175.623V9.43945C175.951 9.28711 176.443 9.1582 177.1 9.05273C177.756 8.94727 178.465 8.86523 179.227 8.80664C179.988 8.74805 180.674 8.71875 181.283 8.71875C181.764 8.71875 182.133 8.75977 182.391 8.8418C182.66 8.91211 182.795 9.18164 182.795 9.65039V10.5117C182.795 10.5234 183.012 10.4297 183.445 10.2305C183.891 10.0312 184.471 9.79102 185.186 9.50977C185.912 9.22852 186.697 8.98242 187.541 8.77148C188.385 8.56055 189.211 8.45508 190.02 8.45508C190.84 8.45508 191.619 8.5957 192.357 8.87695C193.096 9.1582 193.617 9.70312 193.922 10.5117C193.922 10.5234 194.145 10.4297 194.59 10.2305C195.047 10.0312 195.639 9.79102 196.365 9.50977C197.092 9.22852 197.883 8.98242 198.738 8.77148C199.594 8.56055 200.432 8.45508 201.252 8.45508C202.635 8.45508 203.666 8.68945 204.346 9.1582C205.037 9.61523 205.494 10.2539 205.717 11.0742C205.939 11.8828 206.051 12.8262 206.051 13.9043V25.2422H209.109V26.5605C208.711 26.7832 208.055 26.9648 207.141 27.1055C206.227 27.2461 205.348 27.3164 204.504 27.3164C203.789 27.3164 203.186 27.2109 202.693 27C202.213 26.8008 201.973 26.3438 201.973 25.6289V14.1504C201.973 13.1895 201.867 12.4395 201.656 11.9004C201.457 11.3613 200.883 11.0918 199.934 11.0918C199.641 11.0918 199.23 11.127 198.703 11.1973C198.176 11.2676 197.619 11.3555 197.033 11.4609C196.447 11.5664 195.908 11.6719 195.416 11.7773C194.924 11.8828 194.555 11.9648 194.309 12.0234C194.379 12.5977 194.414 13.2246 194.414 13.9043V21.709ZM212.291 18C212.291 16.1367 212.684 14.4902 213.469 13.0605C214.266 11.6191 215.402 10.4941 216.879 9.68555C218.367 8.86523 220.148 8.45508 222.223 8.45508C223.781 8.45508 225.117 8.77734 226.23 9.42188C227.355 10.0664 228.217 10.9102 228.814 11.9531C229.412 12.9961 229.711 14.1211 229.711 15.3281C229.711 15.8789 229.641 16.4297 229.5 16.9805C229.359 17.5312 229.09 17.9883 228.691 18.3516C228.305 18.7148 227.719 18.8965 226.934 18.8965H216.422C216.656 21.0059 217.488 22.623 218.918 23.748C220.348 24.8613 222.094 25.418 224.156 25.418C225.598 25.418 227.098 25.166 228.656 24.6621L229.236 25.8398C228.287 26.4844 227.203 26.9531 225.984 27.2461C224.766 27.5391 223.57 27.6855 222.398 27.6855C221.109 27.6855 219.861 27.4805 218.654 27.0703C217.447 26.6719 216.363 26.0684 215.402 25.2598C214.453 24.4512 213.697 23.4434 213.135 22.2363C212.572 21.0293 212.291 19.6172 212.291 18ZM225.492 16.7344C225.562 16.5 225.609 16.2656 225.633 16.0312C225.656 15.7969 225.668 15.5508 225.668 15.293C225.668 14.5195 225.498 13.7578 225.158 13.0078C224.83 12.2578 224.338 11.6367 223.682 11.1445C223.037 10.6523 222.24 10.4062 221.291 10.4062C220.096 10.4062 219.146 10.7051 218.443 11.3027C217.752 11.8887 217.248 12.6621 216.932 13.623C216.627 14.584 216.445 15.6211 216.387 16.7344H225.492Z" fill="black"/>
</svg>
